<?xml version="1.0" standalone="no"?>
<!DOCTYPE svg PUBLIC "-//W3C//DTD SVG 20010904//EN"
 "http://www.w3.org/TR/2001/REC-SVG-20010904/DTD/svg10.dtd">
<svg version="1.0" xmlns="http://www.w3.org/2000/svg"
 width="512.000000pt" height="512.000000pt" viewBox="0 0 512.000000 512.000000"
 preserveAspectRatio="xMidYMid meet">
<metadata>
Created by potrace 1.11, written by Peter Selinger 2001-2013
</metadata>
<g transform="translate(0.000000,512.000000) scale(0.100000,-0.100000)"
fill="#000000" stroke="none">
<path d="M2694 4386 c-114 -53 -161 -125 -188 -291 -9 -55 -19 -111 -21 -125
-2 -14 -16 -95 -30 -180 -14 -85 -27 -164 -29 -175 -3 -18 -9 -52 -21 -135
-12 -73 -36 -218 -40 -240 -3 -14 -7 -38 -9 -55 -6 -43 -14 -93 -41 -250 -13
-77 -26 -158 -29 -180 -4 -22 -13 -80 -22 -130 -17 -100 -15 -92 -44 -265 -11
-69 -23 -141 -26 -160 -2 -19 -9 -57 -14 -85 -5 -27 -12 -68 -15 -90 -5 -37
-30 -184 -39 -230 -2 -11 -7 -45 -11 -75 -4 -30 -9 -64 -11 -75 -4 -20 -42
-244 -50 -300 -3 -16 -9 -55 -14 -85 -5 -30 -12 -73 -16 -95 -3 -22 -9 -59
-14 -82 -13 -74 -4 -151 26 -210 34 -66 79 -108 153 -140 47 -21 68 -24 126
-21 160 9 265 112 290 283 10 63 31 196 39 245 3 14 19 111 36 215 17 105 33
201 35 215 13 79 56 340 61 370 2 19 7 44 9 56 3 12 7 39 10 60 3 21 11 66 17
99 5 33 11 69 13 80 3 27 15 96 19 120 2 11 7 40 11 65 4 25 9 54 11 65 2 11
6 38 9 60 3 22 10 67 16 100 6 33 13 71 14 85 2 14 11 68 20 120 9 52 18 110
21 129 3 18 7 43 10 54 2 12 6 39 9 62 4 22 15 90 25 150 10 61 21 128 24 150
4 22 13 76 21 120 8 44 17 100 20 125 3 25 8 52 10 60 2 8 7 33 10 55 3 23 8
52 10 65 28 139 27 260 -3 321 -70 144 -248 210 -388 145z"/>
<path d="M3398 4095 c-88 -22 -164 -90 -194 -172 -7 -21 -13 -66 -14 -99 0
-110 1 -111 605 -715 l550 -549 -557 -558 c-306 -306 -564 -573 -574 -592 -25
-48 -28 -166 -7 -220 56 -142 235 -214 370 -149 37 18 199 174 703 678 361
361 665 670 677 686 60 88 60 222 0 310 -34 49 -1330 1341 -1363 1358 -27 14
-50 20 -124 31 -14 2 -46 -2 -72 -9z"/>
<path d="M1565 4033 c-46 -15 -108 -74 -723 -687 -743 -741 -724 -719 -724
-842 0 -122 -21 -98 711 -830 487 -486 676 -670 710 -686 65 -32 177 -31 241
1 52 27 100 76 126 129 28 56 26 183 -4 240 -14 26 -226 246 -573 593 l-551
551 63 65 c35 35 283 283 551 550 337 338 493 501 510 532 32 63 33 187 1 247
-64 121 -209 180 -338 137z"/>
</g>
</svg>
